%TF.GenerationSoftware,KiCad,Pcbnew,7.0.8-1.fc38*%
%TF.CreationDate,2023-12-28T13:03:44+02:00*%
%TF.ProjectId,MotorSpeedControl,4d6f746f-7253-4706-9565-64436f6e7472,rev?*%
%TF.SameCoordinates,Original*%
%TF.FileFunction,Copper,L1,Top*%
%TF.FilePolarity,Positive*%
%FSLAX46Y46*%
G04 Gerber Fmt 4.6, Leading zero omitted, Abs format (unit mm)*
G04 Created by KiCad (PCBNEW 7.0.8-1.fc38) date 2023-12-28 13:03:44*
%MOMM*%
%LPD*%
G01*
G04 APERTURE LIST*
%TA.AperFunction,ComponentPad*%
%ADD10O,2.000000X1.905000*%
%TD*%
%TA.AperFunction,ComponentPad*%
%ADD11R,2.000000X1.905000*%
%TD*%
%TA.AperFunction,ComponentPad*%
%ADD12R,1.700000X1.700000*%
%TD*%
%TA.AperFunction,ComponentPad*%
%ADD13O,1.700000X1.700000*%
%TD*%
%TA.AperFunction,ComponentPad*%
%ADD14C,1.600000*%
%TD*%
%TA.AperFunction,ComponentPad*%
%ADD15O,1.600000X1.600000*%
%TD*%
%TA.AperFunction,ComponentPad*%
%ADD16O,2.200000X2.200000*%
%TD*%
%TA.AperFunction,ComponentPad*%
%ADD17R,2.200000X2.200000*%
%TD*%
%TA.AperFunction,ComponentPad*%
%ADD18R,1.600000X1.600000*%
%TD*%
%TA.AperFunction,ComponentPad*%
%ADD19C,1.800000*%
%TD*%
%TA.AperFunction,ComponentPad*%
%ADD20R,1.600000X2.400000*%
%TD*%
%TA.AperFunction,ComponentPad*%
%ADD21O,1.600000X2.400000*%
%TD*%
%TA.AperFunction,ComponentPad*%
%ADD22R,3.960000X1.980000*%
%TD*%
%TA.AperFunction,ComponentPad*%
%ADD23O,3.960000X1.980000*%
%TD*%
%TA.AperFunction,ViaPad*%
%ADD24C,0.800000*%
%TD*%
%TA.AperFunction,Conductor*%
%ADD25C,0.250000*%
%TD*%
G04 APERTURE END LIST*
D10*
%TO.P,Q1,D,D*%
%TO.N,Net-(J1-Pin_2)*%
X171000000Y-89460000D03*
D11*
%TO.P,Q1,G,G*%
%TO.N,/Pulses*%
X171000000Y-92000000D03*
D10*
%TO.P,Q1,S,S*%
%TO.N,GND*%
X171000000Y-86920000D03*
%TD*%
D12*
%TO.P,J2,1,Pin_1*%
%TO.N,+5V*%
X184650000Y-102540000D03*
D13*
%TO.P,J2,2,Pin_2*%
%TO.N,GND*%
X184650000Y-100000000D03*
%TD*%
D14*
%TO.P,R2,1*%
%TO.N,/Pulses*%
X164000000Y-92810000D03*
D15*
%TO.P,R2,2*%
%TO.N,GND*%
X164000000Y-85190000D03*
%TD*%
D16*
%TO.P,D3,A,A*%
%TO.N,Net-(J1-Pin_2)*%
X177700000Y-93110000D03*
D17*
%TO.P,D3,K,K*%
%TO.N,+5V*%
X177700000Y-85490000D03*
%TD*%
D16*
%TO.P,D1,A,A*%
%TO.N,Net-(D1-PadA)*%
X155400000Y-92210000D03*
D17*
%TO.P,D1,K,K*%
%TO.N,Net-(U1-DIS)*%
X155400000Y-84590000D03*
%TD*%
D14*
%TO.P,C2,1*%
%TO.N,Net-(U1-CV)*%
X178300000Y-109250000D03*
D15*
%TO.P,C2,2*%
%TO.N,GND*%
X185800000Y-109250000D03*
%TD*%
D18*
%TO.P,C3,1*%
%TO.N,+5V*%
X178000000Y-103800000D03*
D14*
%TO.P,C3,2*%
%TO.N,GND*%
X178000000Y-98800000D03*
%TD*%
D16*
%TO.P,D2,A,A*%
%TO.N,Net-(U1-DIS)*%
X150400000Y-84590000D03*
D17*
%TO.P,D2,K,K*%
%TO.N,Net-(D2-PadK)*%
X150400000Y-92210000D03*
%TD*%
D14*
%TO.P,R1,1*%
%TO.N,+5V*%
X190390000Y-100000000D03*
D15*
%TO.P,R1,2*%
%TO.N,Net-(U1-DIS)*%
X198010000Y-100000000D03*
%TD*%
D19*
%TO.P,RV1,1,1*%
%TO.N,Net-(D1-PadA)*%
X153400000Y-99320000D03*
%TO.P,RV1,2,2*%
%TO.N,Net-(U1-THR)*%
X153400000Y-101860000D03*
%TO.P,RV1,3,3*%
%TO.N,Net-(D2-PadK)*%
X153400000Y-104400000D03*
%TD*%
D14*
%TO.P,C1,1*%
%TO.N,Net-(U1-THR)*%
X198030000Y-109250000D03*
D15*
%TO.P,C1,2*%
%TO.N,GND*%
X190530000Y-109250000D03*
%TD*%
D20*
%TO.P,U1,1,GND*%
%TO.N,GND*%
X169100000Y-98575000D03*
D21*
%TO.P,U1,2,TR*%
%TO.N,Net-(U1-THR)*%
X166560000Y-98575000D03*
%TO.P,U1,3,Q*%
%TO.N,/Pulses*%
X164020000Y-98575000D03*
%TO.P,U1,4,R*%
%TO.N,+5V*%
X161480000Y-98575000D03*
%TO.P,U1,5,CV*%
%TO.N,Net-(U1-CV)*%
X161480000Y-106195000D03*
%TO.P,U1,6,THR*%
%TO.N,Net-(U1-THR)*%
X164020000Y-106195000D03*
%TO.P,U1,7,DIS*%
%TO.N,Net-(U1-DIS)*%
X166560000Y-106195000D03*
%TO.P,U1,8,VCC*%
%TO.N,+5V*%
X169100000Y-106195000D03*
%TD*%
D22*
%TO.P,J1,1,Pin_1*%
%TO.N,+5V*%
X191000000Y-87335000D03*
D23*
%TO.P,J1,2,Pin_2*%
%TO.N,Net-(J1-Pin_2)*%
X191000000Y-92335000D03*
%TD*%
D24*
%TO.N,Net-(U1-DIS)*%
X166550000Y-103550000D03*
X158600000Y-99600000D03*
%TD*%
D25*
%TO.N,Net-(U1-THR)*%
X164020000Y-101860000D02*
X164020000Y-106195000D01*
X164550000Y-108700000D02*
X164020000Y-108170000D01*
X166015000Y-101860000D02*
X164020000Y-101860000D01*
X166560000Y-101315000D02*
X166015000Y-101860000D01*
X176100000Y-108700000D02*
X164550000Y-108700000D01*
X164020000Y-108170000D02*
X164020000Y-106195000D01*
X164020000Y-106195000D02*
X163800000Y-105975000D01*
X166560000Y-98575000D02*
X166560000Y-101315000D01*
X197400000Y-106900000D02*
X177900000Y-106900000D01*
X198030000Y-107530000D02*
X197400000Y-106900000D01*
X177900000Y-106900000D02*
X176100000Y-108700000D01*
X198030000Y-109250000D02*
X198030000Y-107530000D01*
X164020000Y-101948198D02*
X164020000Y-106195000D01*
X153400000Y-101860000D02*
X164020000Y-101860000D01*
%TO.N,GND*%
X170880000Y-86800000D02*
X171000000Y-86920000D01*
%TO.N,Net-(U1-CV)*%
X161480000Y-107980000D02*
X162750000Y-109250000D01*
X161480000Y-106195000D02*
X161480000Y-107980000D01*
X177800000Y-109250000D02*
X178250000Y-108800000D01*
X178300000Y-109250000D02*
X162750000Y-109250000D01*
%TO.N,+5V*%
X185740000Y-85490000D02*
X187585000Y-87335000D01*
X177700000Y-83700000D02*
X176800000Y-82800000D01*
X161500000Y-98555000D02*
X161480000Y-98575000D01*
X184650000Y-102540000D02*
X182660000Y-102540000D01*
X176800000Y-82800000D02*
X162600000Y-82800000D01*
X190390000Y-100000000D02*
X194400000Y-100000000D01*
X177700000Y-85490000D02*
X177700000Y-83700000D01*
X195100000Y-88100000D02*
X194335000Y-87335000D01*
X161500000Y-83900000D02*
X161500000Y-98555000D01*
X162600000Y-82800000D02*
X161500000Y-83900000D01*
X169100000Y-104270000D02*
X169570000Y-103800000D01*
X169570000Y-103800000D02*
X178000000Y-103800000D01*
X195100000Y-99300000D02*
X195100000Y-88100000D01*
X194335000Y-87335000D02*
X191000000Y-87335000D01*
X190390000Y-101910000D02*
X189760000Y-102540000D01*
X177700000Y-85490000D02*
X185740000Y-85490000D01*
X181400000Y-103800000D02*
X178000000Y-103800000D01*
X189760000Y-102540000D02*
X184650000Y-102540000D01*
X194400000Y-100000000D02*
X195100000Y-99300000D01*
X169100000Y-106195000D02*
X169100000Y-104270000D01*
X187585000Y-87335000D02*
X191000000Y-87335000D01*
X190390000Y-100000000D02*
X190390000Y-101910000D01*
X182660000Y-102540000D02*
X181400000Y-103800000D01*
%TO.N,Net-(D1-PadA)*%
X153400000Y-99320000D02*
X154980000Y-99320000D01*
X154980000Y-99320000D02*
X155400000Y-98900000D01*
X155400000Y-92210000D02*
X155400000Y-98900000D01*
%TO.N,Net-(U1-DIS)*%
X158600000Y-85500000D02*
X158600000Y-99600000D01*
X157690000Y-84590000D02*
X158600000Y-85500000D01*
X155400000Y-84590000D02*
X157690000Y-84590000D01*
X167000000Y-108200000D02*
X175800000Y-108200000D01*
X175800000Y-108200000D02*
X177600000Y-106400000D01*
X166560000Y-106195000D02*
X166560000Y-103560000D01*
X198010000Y-105790000D02*
X198010000Y-100000000D01*
X166560000Y-106195000D02*
X166560000Y-107760000D01*
X166560000Y-103560000D02*
X166550000Y-103550000D01*
X177600000Y-106400000D02*
X197400000Y-106400000D01*
X150400000Y-84590000D02*
X155400000Y-84590000D01*
X166560000Y-107760000D02*
X167000000Y-108200000D01*
X197400000Y-106400000D02*
X198010000Y-105790000D01*
%TO.N,Net-(D2-PadK)*%
X151600000Y-104400000D02*
X153400000Y-104400000D01*
X150400000Y-103200000D02*
X151600000Y-104400000D01*
X150400000Y-92210000D02*
X150400000Y-103200000D01*
%TO.N,Net-(J1-Pin_2)*%
X173660000Y-89460000D02*
X174300000Y-90100000D01*
X185915000Y-92335000D02*
X191000000Y-92335000D01*
X174300000Y-90100000D02*
X174300000Y-92700000D01*
X174710000Y-93110000D02*
X177700000Y-93110000D01*
X171000000Y-89460000D02*
X173660000Y-89460000D01*
X185140000Y-93110000D02*
X185915000Y-92335000D01*
X177700000Y-93110000D02*
X185140000Y-93110000D01*
X174300000Y-92700000D02*
X174710000Y-93110000D01*
%TO.N,/Pulses*%
X167400000Y-92000000D02*
X166590000Y-92810000D01*
X166590000Y-92810000D02*
X164000000Y-92810000D01*
X164020000Y-98575000D02*
X164020000Y-92830000D01*
X164020000Y-92830000D02*
X164000000Y-92810000D01*
X171000000Y-92000000D02*
X167400000Y-92000000D01*
%TD*%
M02*
