%TF.GenerationSoftware,KiCad,Pcbnew,7.0.8-1.fc38*%
%TF.CreationDate,2023-12-28T13:03:44+02:00*%
%TF.ProjectId,MotorSpeedControl,4d6f746f-7253-4706-9565-64436f6e7472,rev?*%
%TF.SameCoordinates,Original*%
%TF.FileFunction,Copper,L2,Bot*%
%TF.FilePolarity,Positive*%
%FSLAX46Y46*%
G04 Gerber Fmt 4.6, Leading zero omitted, Abs format (unit mm)*
G04 Created by KiCad (PCBNEW 7.0.8-1.fc38) date 2023-12-28 13:03:44*
%MOMM*%
%LPD*%
G01*
G04 APERTURE LIST*
%TA.AperFunction,ComponentPad*%
%ADD10O,2.000000X1.905000*%
%TD*%
%TA.AperFunction,ComponentPad*%
%ADD11R,2.000000X1.905000*%
%TD*%
%TA.AperFunction,ComponentPad*%
%ADD12R,1.700000X1.700000*%
%TD*%
%TA.AperFunction,ComponentPad*%
%ADD13O,1.700000X1.700000*%
%TD*%
%TA.AperFunction,ComponentPad*%
%ADD14C,1.600000*%
%TD*%
%TA.AperFunction,ComponentPad*%
%ADD15O,1.600000X1.600000*%
%TD*%
%TA.AperFunction,ComponentPad*%
%ADD16O,2.200000X2.200000*%
%TD*%
%TA.AperFunction,ComponentPad*%
%ADD17R,2.200000X2.200000*%
%TD*%
%TA.AperFunction,ComponentPad*%
%ADD18R,1.600000X1.600000*%
%TD*%
%TA.AperFunction,ComponentPad*%
%ADD19C,1.800000*%
%TD*%
%TA.AperFunction,ComponentPad*%
%ADD20R,1.600000X2.400000*%
%TD*%
%TA.AperFunction,ComponentPad*%
%ADD21O,1.600000X2.400000*%
%TD*%
%TA.AperFunction,ComponentPad*%
%ADD22R,3.960000X1.980000*%
%TD*%
%TA.AperFunction,ComponentPad*%
%ADD23O,3.960000X1.980000*%
%TD*%
%TA.AperFunction,ViaPad*%
%ADD24C,0.800000*%
%TD*%
%TA.AperFunction,Conductor*%
%ADD25C,0.250000*%
%TD*%
G04 APERTURE END LIST*
D10*
%TO.P,Q1,D,D*%
%TO.N,Net-(J1-Pin_2)*%
X171000000Y-89460000D03*
D11*
%TO.P,Q1,G,G*%
%TO.N,/Pulses*%
X171000000Y-92000000D03*
D10*
%TO.P,Q1,S,S*%
%TO.N,GND*%
X171000000Y-86920000D03*
%TD*%
D12*
%TO.P,J2,1,Pin_1*%
%TO.N,+5V*%
X184650000Y-102540000D03*
D13*
%TO.P,J2,2,Pin_2*%
%TO.N,GND*%
X184650000Y-100000000D03*
%TD*%
D14*
%TO.P,R2,1*%
%TO.N,/Pulses*%
X164000000Y-92810000D03*
D15*
%TO.P,R2,2*%
%TO.N,GND*%
X164000000Y-85190000D03*
%TD*%
D16*
%TO.P,D3,A,A*%
%TO.N,Net-(J1-Pin_2)*%
X177700000Y-93110000D03*
D17*
%TO.P,D3,K,K*%
%TO.N,+5V*%
X177700000Y-85490000D03*
%TD*%
D16*
%TO.P,D1,A,A*%
%TO.N,Net-(D1-PadA)*%
X155400000Y-92210000D03*
D17*
%TO.P,D1,K,K*%
%TO.N,Net-(U1-DIS)*%
X155400000Y-84590000D03*
%TD*%
D14*
%TO.P,C2,1*%
%TO.N,Net-(U1-CV)*%
X178300000Y-109250000D03*
D15*
%TO.P,C2,2*%
%TO.N,GND*%
X185800000Y-109250000D03*
%TD*%
D18*
%TO.P,C3,1*%
%TO.N,+5V*%
X178000000Y-103800000D03*
D14*
%TO.P,C3,2*%
%TO.N,GND*%
X178000000Y-98800000D03*
%TD*%
D16*
%TO.P,D2,A,A*%
%TO.N,Net-(U1-DIS)*%
X150400000Y-84590000D03*
D17*
%TO.P,D2,K,K*%
%TO.N,Net-(D2-PadK)*%
X150400000Y-92210000D03*
%TD*%
D14*
%TO.P,R1,1*%
%TO.N,+5V*%
X190390000Y-100000000D03*
D15*
%TO.P,R1,2*%
%TO.N,Net-(U1-DIS)*%
X198010000Y-100000000D03*
%TD*%
D19*
%TO.P,RV1,1,1*%
%TO.N,Net-(D1-PadA)*%
X153400000Y-99320000D03*
%TO.P,RV1,2,2*%
%TO.N,Net-(U1-THR)*%
X153400000Y-101860000D03*
%TO.P,RV1,3,3*%
%TO.N,Net-(D2-PadK)*%
X153400000Y-104400000D03*
%TD*%
D14*
%TO.P,C1,1*%
%TO.N,Net-(U1-THR)*%
X198030000Y-109250000D03*
D15*
%TO.P,C1,2*%
%TO.N,GND*%
X190530000Y-109250000D03*
%TD*%
D20*
%TO.P,U1,1,GND*%
%TO.N,GND*%
X169100000Y-98575000D03*
D21*
%TO.P,U1,2,TR*%
%TO.N,Net-(U1-THR)*%
X166560000Y-98575000D03*
%TO.P,U1,3,Q*%
%TO.N,/Pulses*%
X164020000Y-98575000D03*
%TO.P,U1,4,R*%
%TO.N,+5V*%
X161480000Y-98575000D03*
%TO.P,U1,5,CV*%
%TO.N,Net-(U1-CV)*%
X161480000Y-106195000D03*
%TO.P,U1,6,THR*%
%TO.N,Net-(U1-THR)*%
X164020000Y-106195000D03*
%TO.P,U1,7,DIS*%
%TO.N,Net-(U1-DIS)*%
X166560000Y-106195000D03*
%TO.P,U1,8,VCC*%
%TO.N,+5V*%
X169100000Y-106195000D03*
%TD*%
D22*
%TO.P,J1,1,Pin_1*%
%TO.N,+5V*%
X191000000Y-87335000D03*
D23*
%TO.P,J1,2,Pin_2*%
%TO.N,Net-(J1-Pin_2)*%
X191000000Y-92335000D03*
%TD*%
D24*
%TO.N,Net-(U1-DIS)*%
X166550000Y-103550000D03*
X158600000Y-99600000D03*
%TD*%
D25*
%TO.N,Net-(U1-DIS)*%
X159230000Y-103550000D02*
X158600000Y-102920000D01*
X158600000Y-102920000D02*
X158600000Y-99600000D01*
X166550000Y-103550000D02*
X159230000Y-103550000D01*
%TD*%
%TA.AperFunction,Conductor*%
%TO.N,GND*%
G36*
X203943039Y-81019685D02*
G01*
X203988794Y-81072489D01*
X204000000Y-81124000D01*
X204000000Y-113876000D01*
X203980315Y-113943039D01*
X203927511Y-113988794D01*
X203876000Y-114000000D01*
X146124000Y-114000000D01*
X146056961Y-113980315D01*
X146011206Y-113927511D01*
X146000000Y-113876000D01*
X146000000Y-109250001D01*
X176994532Y-109250001D01*
X177014364Y-109476686D01*
X177014366Y-109476697D01*
X177073258Y-109696488D01*
X177073261Y-109696497D01*
X177169431Y-109902732D01*
X177169432Y-109902734D01*
X177299954Y-110089141D01*
X177460858Y-110250045D01*
X177460861Y-110250047D01*
X177647266Y-110380568D01*
X177853504Y-110476739D01*
X178073308Y-110535635D01*
X178235230Y-110549801D01*
X178299998Y-110555468D01*
X178300000Y-110555468D01*
X178300002Y-110555468D01*
X178356673Y-110550509D01*
X178526692Y-110535635D01*
X178746496Y-110476739D01*
X178952734Y-110380568D01*
X179139139Y-110250047D01*
X179300047Y-110089139D01*
X179430568Y-109902734D01*
X179526739Y-109696496D01*
X179585635Y-109476692D01*
X179605468Y-109250000D01*
X179585635Y-109023308D01*
X179579389Y-108999999D01*
X184521127Y-108999999D01*
X184521128Y-109000000D01*
X185484314Y-109000000D01*
X185472359Y-109011955D01*
X185414835Y-109124852D01*
X185395014Y-109250000D01*
X185414835Y-109375148D01*
X185472359Y-109488045D01*
X185484314Y-109500000D01*
X184521128Y-109500000D01*
X184573730Y-109696317D01*
X184573734Y-109696326D01*
X184669865Y-109902482D01*
X184800342Y-110088820D01*
X184961179Y-110249657D01*
X185147517Y-110380134D01*
X185353673Y-110476265D01*
X185353682Y-110476269D01*
X185549999Y-110528872D01*
X185550000Y-110528871D01*
X185550000Y-109565686D01*
X185561955Y-109577641D01*
X185674852Y-109635165D01*
X185768519Y-109650000D01*
X185831481Y-109650000D01*
X185925148Y-109635165D01*
X186038045Y-109577641D01*
X186050000Y-109565686D01*
X186050000Y-110528872D01*
X186246317Y-110476269D01*
X186246326Y-110476265D01*
X186452482Y-110380134D01*
X186638820Y-110249657D01*
X186799657Y-110088820D01*
X186930134Y-109902482D01*
X187026265Y-109696326D01*
X187026269Y-109696317D01*
X187078872Y-109500000D01*
X186115686Y-109500000D01*
X186127641Y-109488045D01*
X186185165Y-109375148D01*
X186204986Y-109250000D01*
X186185165Y-109124852D01*
X186127641Y-109011955D01*
X186115686Y-109000000D01*
X187078872Y-109000000D01*
X187078872Y-108999999D01*
X189251127Y-108999999D01*
X189251128Y-109000000D01*
X190214314Y-109000000D01*
X190202359Y-109011955D01*
X190144835Y-109124852D01*
X190125014Y-109250000D01*
X190144835Y-109375148D01*
X190202359Y-109488045D01*
X190214314Y-109500000D01*
X189251128Y-109500000D01*
X189303730Y-109696317D01*
X189303734Y-109696326D01*
X189399865Y-109902482D01*
X189530342Y-110088820D01*
X189691179Y-110249657D01*
X189877517Y-110380134D01*
X190083673Y-110476265D01*
X190083682Y-110476269D01*
X190279999Y-110528872D01*
X190280000Y-110528871D01*
X190280000Y-109565686D01*
X190291955Y-109577641D01*
X190404852Y-109635165D01*
X190498519Y-109650000D01*
X190561481Y-109650000D01*
X190655148Y-109635165D01*
X190768045Y-109577641D01*
X190780000Y-109565686D01*
X190780000Y-110528872D01*
X190976317Y-110476269D01*
X190976326Y-110476265D01*
X191182482Y-110380134D01*
X191368820Y-110249657D01*
X191529657Y-110088820D01*
X191660134Y-109902482D01*
X191756265Y-109696326D01*
X191756269Y-109696317D01*
X191808872Y-109500000D01*
X190845686Y-109500000D01*
X190857641Y-109488045D01*
X190915165Y-109375148D01*
X190934986Y-109250001D01*
X196724532Y-109250001D01*
X196744364Y-109476686D01*
X196744366Y-109476697D01*
X196803258Y-109696488D01*
X196803261Y-109696497D01*
X196899431Y-109902732D01*
X196899432Y-109902734D01*
X197029954Y-110089141D01*
X197190858Y-110250045D01*
X197190861Y-110250047D01*
X197377266Y-110380568D01*
X197583504Y-110476739D01*
X197803308Y-110535635D01*
X197965230Y-110549801D01*
X198029998Y-110555468D01*
X198030000Y-110555468D01*
X198030002Y-110555468D01*
X198086673Y-110550509D01*
X198256692Y-110535635D01*
X198476496Y-110476739D01*
X198682734Y-110380568D01*
X198869139Y-110250047D01*
X199030047Y-110089139D01*
X199160568Y-109902734D01*
X199256739Y-109696496D01*
X199315635Y-109476692D01*
X199335468Y-109250000D01*
X199315635Y-109023308D01*
X199256739Y-108803504D01*
X199160568Y-108597266D01*
X199030047Y-108410861D01*
X199030045Y-108410858D01*
X198869141Y-108249954D01*
X198682734Y-108119432D01*
X198682732Y-108119431D01*
X198476497Y-108023261D01*
X198476488Y-108023258D01*
X198256697Y-107964366D01*
X198256693Y-107964365D01*
X198256692Y-107964365D01*
X198256691Y-107964364D01*
X198256686Y-107964364D01*
X198030002Y-107944532D01*
X198029998Y-107944532D01*
X197803313Y-107964364D01*
X197803302Y-107964366D01*
X197583511Y-108023258D01*
X197583502Y-108023261D01*
X197377267Y-108119431D01*
X197377265Y-108119432D01*
X197190858Y-108249954D01*
X197029954Y-108410858D01*
X196899432Y-108597265D01*
X196899431Y-108597267D01*
X196803261Y-108803502D01*
X196803258Y-108803511D01*
X196744366Y-109023302D01*
X196744364Y-109023313D01*
X196724532Y-109249998D01*
X196724532Y-109250001D01*
X190934986Y-109250001D01*
X190934986Y-109250000D01*
X190915165Y-109124852D01*
X190857641Y-109011955D01*
X190845686Y-109000000D01*
X191808872Y-109000000D01*
X191808872Y-108999999D01*
X191756269Y-108803682D01*
X191756265Y-108803673D01*
X191660134Y-108597517D01*
X191529657Y-108411179D01*
X191368820Y-108250342D01*
X191182482Y-108119865D01*
X190976328Y-108023734D01*
X190780000Y-107971127D01*
X190780000Y-108934314D01*
X190768045Y-108922359D01*
X190655148Y-108864835D01*
X190561481Y-108850000D01*
X190498519Y-108850000D01*
X190404852Y-108864835D01*
X190291955Y-108922359D01*
X190280000Y-108934314D01*
X190280000Y-107971127D01*
X190083671Y-108023734D01*
X189877517Y-108119865D01*
X189691179Y-108250342D01*
X189530342Y-108411179D01*
X189399865Y-108597517D01*
X189303734Y-108803673D01*
X189303730Y-108803682D01*
X189251127Y-108999999D01*
X187078872Y-108999999D01*
X187026269Y-108803682D01*
X187026265Y-108803673D01*
X186930134Y-108597517D01*
X186799657Y-108411179D01*
X186638820Y-108250342D01*
X186452482Y-108119865D01*
X186246328Y-108023734D01*
X186050000Y-107971127D01*
X186050000Y-108934314D01*
X186038045Y-108922359D01*
X185925148Y-108864835D01*
X185831481Y-108850000D01*
X185768519Y-108850000D01*
X185674852Y-108864835D01*
X185561955Y-108922359D01*
X185550000Y-108934314D01*
X185550000Y-107971127D01*
X185353671Y-108023734D01*
X185147517Y-108119865D01*
X184961179Y-108250342D01*
X184800342Y-108411179D01*
X184669865Y-108597517D01*
X184573734Y-108803673D01*
X184573730Y-108803682D01*
X184521127Y-108999999D01*
X179579389Y-108999999D01*
X179526739Y-108803504D01*
X179430568Y-108597266D01*
X179300047Y-108410861D01*
X179300045Y-108410858D01*
X179139141Y-108249954D01*
X178952734Y-108119432D01*
X178952732Y-108119431D01*
X178746497Y-108023261D01*
X178746488Y-108023258D01*
X178526697Y-107964366D01*
X178526693Y-107964365D01*
X178526692Y-107964365D01*
X178526691Y-107964364D01*
X178526686Y-107964364D01*
X178300002Y-107944532D01*
X178299998Y-107944532D01*
X178073313Y-107964364D01*
X178073302Y-107964366D01*
X177853511Y-108023258D01*
X177853502Y-108023261D01*
X177647267Y-108119431D01*
X177647265Y-108119432D01*
X177460858Y-108249954D01*
X177299954Y-108410858D01*
X177169432Y-108597265D01*
X177169431Y-108597267D01*
X177073261Y-108803502D01*
X177073258Y-108803511D01*
X177014366Y-109023302D01*
X177014364Y-109023313D01*
X176994532Y-109249998D01*
X176994532Y-109250001D01*
X146000000Y-109250001D01*
X146000000Y-104400006D01*
X151994700Y-104400006D01*
X152013864Y-104631297D01*
X152013866Y-104631308D01*
X152070842Y-104856300D01*
X152164075Y-105068848D01*
X152291016Y-105263147D01*
X152291019Y-105263151D01*
X152291021Y-105263153D01*
X152448216Y-105433913D01*
X152448219Y-105433915D01*
X152448222Y-105433918D01*
X152631365Y-105576464D01*
X152631371Y-105576468D01*
X152631374Y-105576470D01*
X152835497Y-105686936D01*
X152949487Y-105726068D01*
X153055015Y-105762297D01*
X153055017Y-105762297D01*
X153055019Y-105762298D01*
X153283951Y-105800500D01*
X153283952Y-105800500D01*
X153516048Y-105800500D01*
X153516049Y-105800500D01*
X153744981Y-105762298D01*
X153964503Y-105686936D01*
X154168626Y-105576470D01*
X154179108Y-105568312D01*
X154254082Y-105509957D01*
X154351784Y-105433913D01*
X154508979Y-105263153D01*
X154635924Y-105068849D01*
X154729157Y-104856300D01*
X154786134Y-104631305D01*
X154791447Y-104567187D01*
X154805300Y-104400006D01*
X154805300Y-104399993D01*
X154786135Y-104168702D01*
X154786133Y-104168691D01*
X154729157Y-103943699D01*
X154635924Y-103731151D01*
X154508983Y-103536852D01*
X154508980Y-103536849D01*
X154508979Y-103536847D01*
X154351784Y-103366087D01*
X154174180Y-103227853D01*
X154133368Y-103171143D01*
X154129693Y-103101370D01*
X154164324Y-103040687D01*
X154174181Y-103032146D01*
X154351784Y-102893913D01*
X154508979Y-102723153D01*
X154635924Y-102528849D01*
X154729157Y-102316300D01*
X154786134Y-102091305D01*
X154805300Y-101860000D01*
X154805300Y-101859993D01*
X154786135Y-101628702D01*
X154786133Y-101628691D01*
X154729157Y-101403699D01*
X154635924Y-101191151D01*
X154508983Y-100996852D01*
X154508980Y-100996849D01*
X154508979Y-100996847D01*
X154351784Y-100826087D01*
X154174180Y-100687853D01*
X154133368Y-100631143D01*
X154129693Y-100561370D01*
X154164324Y-100500687D01*
X154174181Y-100492146D01*
X154351784Y-100353913D01*
X154508979Y-100183153D01*
X154635924Y-99988849D01*
X154729157Y-99776300D01*
X154773803Y-99600000D01*
X157694540Y-99600000D01*
X157714326Y-99788256D01*
X157714327Y-99788259D01*
X157772818Y-99968277D01*
X157772821Y-99968284D01*
X157867467Y-100132216D01*
X157910772Y-100180310D01*
X157942650Y-100215715D01*
X157972880Y-100278706D01*
X157974500Y-100298687D01*
X157974500Y-102837255D01*
X157972775Y-102852872D01*
X157973061Y-102852899D01*
X157972326Y-102860665D01*
X157974500Y-102929814D01*
X157974500Y-102959343D01*
X157974501Y-102959360D01*
X157975368Y-102966231D01*
X157975826Y-102972050D01*
X157977290Y-103018624D01*
X157977291Y-103018627D01*
X157982880Y-103037867D01*
X157986824Y-103056911D01*
X157989336Y-103076791D01*
X158006490Y-103120119D01*
X158008382Y-103125647D01*
X158021382Y-103170390D01*
X158028083Y-103181722D01*
X158031580Y-103187634D01*
X158040138Y-103205103D01*
X158047514Y-103223732D01*
X158074898Y-103261423D01*
X158078106Y-103266307D01*
X158101827Y-103306416D01*
X158101833Y-103306424D01*
X158115990Y-103320580D01*
X158128627Y-103335375D01*
X158140406Y-103351587D01*
X158157932Y-103366086D01*
X158176309Y-103381288D01*
X158180620Y-103385210D01*
X158526561Y-103731151D01*
X158729194Y-103933784D01*
X158739019Y-103946048D01*
X158739240Y-103945866D01*
X158744210Y-103951873D01*
X158744213Y-103951876D01*
X158744214Y-103951877D01*
X158794651Y-103999241D01*
X158815530Y-104020120D01*
X158821004Y-104024366D01*
X158825442Y-104028156D01*
X158859418Y-104060062D01*
X158859422Y-104060064D01*
X158876973Y-104069713D01*
X158893231Y-104080392D01*
X158909064Y-104092674D01*
X158931015Y-104102172D01*
X158951837Y-104111183D01*
X158957081Y-104113752D01*
X158997908Y-104136197D01*
X159017312Y-104141179D01*
X159035710Y-104147478D01*
X159054105Y-104155438D01*
X159100129Y-104162726D01*
X159105832Y-104163907D01*
X159150981Y-104175500D01*
X159171016Y-104175500D01*
X159190413Y-104177026D01*
X159210196Y-104180160D01*
X159256584Y-104175775D01*
X159262422Y-104175500D01*
X165846252Y-104175500D01*
X165913291Y-104195185D01*
X165938400Y-104216526D01*
X165944126Y-104222885D01*
X165944129Y-104222888D01*
X166097270Y-104334151D01*
X166113836Y-104341526D01*
X166167071Y-104386773D01*
X166187394Y-104453622D01*
X166168350Y-104520846D01*
X166115985Y-104567103D01*
X166115806Y-104567187D01*
X165907264Y-104664433D01*
X165720858Y-104794954D01*
X165559954Y-104955858D01*
X165429432Y-105142265D01*
X165429431Y-105142267D01*
X165402382Y-105200275D01*
X165356209Y-105252714D01*
X165289016Y-105271866D01*
X165222135Y-105251650D01*
X165177618Y-105200275D01*
X165150568Y-105142267D01*
X165150567Y-105142265D01*
X165121322Y-105100499D01*
X165021227Y-104957546D01*
X165020045Y-104955858D01*
X164859141Y-104794954D01*
X164672734Y-104664432D01*
X164672732Y-104664431D01*
X164466497Y-104568261D01*
X164466488Y-104568258D01*
X164246697Y-104509366D01*
X164246693Y-104509365D01*
X164246692Y-104509365D01*
X164246691Y-104509364D01*
X164246686Y-104509364D01*
X164020002Y-104489532D01*
X164019998Y-104489532D01*
X163793313Y-104509364D01*
X163793302Y-104509366D01*
X163573511Y-104568258D01*
X163573502Y-104568261D01*
X163367267Y-104664431D01*
X163367265Y-104664432D01*
X163180858Y-104794954D01*
X163019954Y-104955858D01*
X162889432Y-105142265D01*
X162889431Y-105142267D01*
X162862382Y-105200275D01*
X162816209Y-105252714D01*
X162749016Y-105271866D01*
X162682135Y-105251650D01*
X162637618Y-105200275D01*
X162610568Y-105142267D01*
X162610567Y-105142265D01*
X162581322Y-105100499D01*
X162481227Y-104957546D01*
X162480045Y-104955858D01*
X162319141Y-104794954D01*
X162132734Y-104664432D01*
X162132732Y-104664431D01*
X161926497Y-104568261D01*
X161926488Y-104568258D01*
X161706697Y-104509366D01*
X161706693Y-104509365D01*
X161706692Y-104509365D01*
X161706691Y-104509364D01*
X161706686Y-104509364D01*
X161480002Y-104489532D01*
X161479998Y-104489532D01*
X161253313Y-104509364D01*
X161253302Y-104509366D01*
X161033511Y-104568258D01*
X161033502Y-104568261D01*
X160827267Y-104664431D01*
X160827265Y-104664432D01*
X160640858Y-104794954D01*
X160479954Y-104955858D01*
X160349432Y-105142265D01*
X160349431Y-105142267D01*
X160253261Y-105348502D01*
X160253258Y-105348511D01*
X160194366Y-105568302D01*
X160194364Y-105568312D01*
X160179500Y-105738216D01*
X160179500Y-106651784D01*
X160194364Y-106821687D01*
X160194366Y-106821697D01*
X160253258Y-107041488D01*
X160253261Y-107041497D01*
X160349431Y-107247732D01*
X160349432Y-107247734D01*
X160479954Y-107434141D01*
X160640858Y-107595045D01*
X160640861Y-107595047D01*
X160827266Y-107725568D01*
X161033504Y-107821739D01*
X161253308Y-107880635D01*
X161415230Y-107894801D01*
X161479998Y-107900468D01*
X161480000Y-107900468D01*
X161480002Y-107900468D01*
X161536673Y-107895509D01*
X161706692Y-107880635D01*
X161926496Y-107821739D01*
X162132734Y-107725568D01*
X162319139Y-107595047D01*
X162480047Y-107434139D01*
X162610568Y-107247734D01*
X162637618Y-107189724D01*
X162683790Y-107137285D01*
X162750983Y-107118133D01*
X162817865Y-107138348D01*
X162862382Y-107189725D01*
X162889429Y-107247728D01*
X162889432Y-107247734D01*
X163019954Y-107434141D01*
X163180858Y-107595045D01*
X163180861Y-107595047D01*
X163367266Y-107725568D01*
X163573504Y-107821739D01*
X163793308Y-107880635D01*
X163955230Y-107894801D01*
X164019998Y-107900468D01*
X164020000Y-107900468D01*
X164020002Y-107900468D01*
X164076673Y-107895509D01*
X164246692Y-107880635D01*
X164466496Y-107821739D01*
X164672734Y-107725568D01*
X164859139Y-107595047D01*
X165020047Y-107434139D01*
X165150568Y-107247734D01*
X165177618Y-107189724D01*
X165223790Y-107137285D01*
X165290983Y-107118133D01*
X165357865Y-107138348D01*
X165402382Y-107189725D01*
X165429429Y-107247728D01*
X165429432Y-107247734D01*
X165559954Y-107434141D01*
X165720858Y-107595045D01*
X165720861Y-107595047D01*
X165907266Y-107725568D01*
X166113504Y-107821739D01*
X166333308Y-107880635D01*
X166495230Y-107894801D01*
X166559998Y-107900468D01*
X166560000Y-107900468D01*
X166560002Y-107900468D01*
X166616673Y-107895509D01*
X166786692Y-107880635D01*
X167006496Y-107821739D01*
X167212734Y-107725568D01*
X167399139Y-107595047D01*
X167560047Y-107434139D01*
X167690568Y-107247734D01*
X167717618Y-107189724D01*
X167763790Y-107137285D01*
X167830983Y-107118133D01*
X167897865Y-107138348D01*
X167942382Y-107189725D01*
X167969429Y-107247728D01*
X167969432Y-107247734D01*
X168099954Y-107434141D01*
X168260858Y-107595045D01*
X168260861Y-107595047D01*
X168447266Y-107725568D01*
X168653504Y-107821739D01*
X168873308Y-107880635D01*
X169035230Y-107894801D01*
X169099998Y-107900468D01*
X169100000Y-107900468D01*
X169100002Y-107900468D01*
X169156673Y-107895509D01*
X169326692Y-107880635D01*
X169546496Y-107821739D01*
X169752734Y-107725568D01*
X169939139Y-107595047D01*
X170100047Y-107434139D01*
X170230568Y-107247734D01*
X170326739Y-107041496D01*
X170385635Y-106821692D01*
X170400500Y-106651784D01*
X170400500Y-105738216D01*
X170385635Y-105568308D01*
X170326739Y-105348504D01*
X170230568Y-105142266D01*
X170101227Y-104957546D01*
X170100045Y-104955858D01*
X169939141Y-104794954D01*
X169752734Y-104664432D01*
X169752732Y-104664431D01*
X169717217Y-104647870D01*
X176699500Y-104647870D01*
X176699501Y-104647876D01*
X176705908Y-104707483D01*
X176756202Y-104842328D01*
X176756206Y-104842335D01*
X176842452Y-104957544D01*
X176842455Y-104957547D01*
X176957664Y-105043793D01*
X176957671Y-105043797D01*
X177092517Y-105094091D01*
X177092516Y-105094091D01*
X177099444Y-105094835D01*
X177152127Y-105100500D01*
X178847872Y-105100499D01*
X178907483Y-105094091D01*
X179042331Y-105043796D01*
X179157546Y-104957546D01*
X179243796Y-104842331D01*
X179294091Y-104707483D01*
X179300500Y-104647873D01*
X179300499Y-103437870D01*
X183299500Y-103437870D01*
X183299501Y-103437876D01*
X183305908Y-103497483D01*
X183356202Y-103632328D01*
X183356206Y-103632335D01*
X183442452Y-103747544D01*
X183442455Y-103747547D01*
X183557664Y-103833793D01*
X183557671Y-103833797D01*
X183692517Y-103884091D01*
X183692516Y-103884091D01*
X183699444Y-103884835D01*
X183752127Y-103890500D01*
X185547872Y-103890499D01*
X185607483Y-103884091D01*
X185742331Y-103833796D01*
X185857546Y-103747546D01*
X185943796Y-103632331D01*
X185994091Y-103497483D01*
X186000500Y-103437873D01*
X186000499Y-101642128D01*
X185994091Y-101582517D01*
X185943796Y-101447669D01*
X185943795Y-101447668D01*
X185943793Y-101447664D01*
X185857547Y-101332455D01*
X185857544Y-101332452D01*
X185742335Y-101246206D01*
X185742328Y-101246202D01*
X185610401Y-101196997D01*
X185554467Y-101155126D01*
X185530050Y-101089662D01*
X185544902Y-101021389D01*
X185566053Y-100993133D01*
X185688108Y-100871078D01*
X185823600Y-100677578D01*
X185923429Y-100463492D01*
X185923432Y-100463486D01*
X185980636Y-100250000D01*
X185083686Y-100250000D01*
X185109493Y-100209844D01*
X185150000Y-100071889D01*
X185150000Y-100000001D01*
X189084532Y-100000001D01*
X189104364Y-100226686D01*
X189104366Y-100226697D01*
X189163258Y-100446488D01*
X189163261Y-100446497D01*
X189259431Y-100652732D01*
X189259432Y-100652734D01*
X189389954Y-100839141D01*
X189550858Y-101000045D01*
X189550861Y-101000047D01*
X189737266Y-101130568D01*
X189943504Y-101226739D01*
X190163308Y-101285635D01*
X190325230Y-101299801D01*
X190389998Y-101305468D01*
X190390000Y-101305468D01*
X190390002Y-101305468D01*
X190446673Y-101300509D01*
X190616692Y-101285635D01*
X190836496Y-101226739D01*
X191042734Y-101130568D01*
X191229139Y-101000047D01*
X191390047Y-100839139D01*
X191520568Y-100652734D01*
X191616739Y-100446496D01*
X191675635Y-100226692D01*
X191695468Y-100000001D01*
X196704532Y-100000001D01*
X196724364Y-100226686D01*
X196724366Y-100226697D01*
X196783258Y-100446488D01*
X196783261Y-100446497D01*
X196879431Y-100652732D01*
X196879432Y-100652734D01*
X197009954Y-100839141D01*
X197170858Y-101000045D01*
X197170861Y-101000047D01*
X197357266Y-101130568D01*
X197563504Y-101226739D01*
X197783308Y-101285635D01*
X197945230Y-101299801D01*
X198009998Y-101305468D01*
X198010000Y-101305468D01*
X198010002Y-101305468D01*
X198066673Y-101300509D01*
X198236692Y-101285635D01*
X198456496Y-101226739D01*
X198662734Y-101130568D01*
X198849139Y-101000047D01*
X199010047Y-100839139D01*
X199140568Y-100652734D01*
X199236739Y-100446496D01*
X199295635Y-100226692D01*
X199315468Y-100000000D01*
X199314492Y-99988849D01*
X199299967Y-99822827D01*
X199295635Y-99773308D01*
X199236739Y-99553504D01*
X199140568Y-99347266D01*
X199010047Y-99160861D01*
X199010045Y-99160858D01*
X198849141Y-98999954D01*
X198662734Y-98869432D01*
X198662732Y-98869431D01*
X198456497Y-98773261D01*
X198456488Y-98773258D01*
X198236697Y-98714366D01*
X198236693Y-98714365D01*
X198236692Y-98714365D01*
X198236691Y-98714364D01*
X198236686Y-98714364D01*
X198010002Y-98694532D01*
X198009998Y-98694532D01*
X197783313Y-98714364D01*
X197783302Y-98714366D01*
X197563511Y-98773258D01*
X197563502Y-98773261D01*
X197357267Y-98869431D01*
X197357265Y-98869432D01*
X197170858Y-98999954D01*
X197009954Y-99160858D01*
X196879432Y-99347265D01*
X196879431Y-99347267D01*
X196783261Y-99553502D01*
X196783258Y-99553511D01*
X196724366Y-99773302D01*
X196724364Y-99773313D01*
X196704532Y-99999998D01*
X196704532Y-100000001D01*
X191695468Y-100000001D01*
X191695468Y-100000000D01*
X191694492Y-99988849D01*
X191679967Y-99822827D01*
X191675635Y-99773308D01*
X191616739Y-99553504D01*
X191520568Y-99347266D01*
X191390047Y-99160861D01*
X191390045Y-99160858D01*
X191229141Y-98999954D01*
X191042734Y-98869432D01*
X191042732Y-98869431D01*
X190836497Y-98773261D01*
X190836488Y-98773258D01*
X190616697Y-98714366D01*
X190616693Y-98714365D01*
X190616692Y-98714365D01*
X190616691Y-98714364D01*
X190616686Y-98714364D01*
X190390002Y-98694532D01*
X190389998Y-98694532D01*
X190163313Y-98714364D01*
X190163302Y-98714366D01*
X189943511Y-98773258D01*
X189943502Y-98773261D01*
X189737267Y-98869431D01*
X189737265Y-98869432D01*
X189550858Y-98999954D01*
X189389954Y-99160858D01*
X189259432Y-99347265D01*
X189259431Y-99347267D01*
X189163261Y-99553502D01*
X189163258Y-99553511D01*
X189104366Y-99773302D01*
X189104364Y-99773313D01*
X189084532Y-99999998D01*
X189084532Y-100000001D01*
X185150000Y-100000001D01*
X185150000Y-99928111D01*
X185109493Y-99790156D01*
X185083686Y-99750000D01*
X185980636Y-99750000D01*
X185980635Y-99749999D01*
X185923432Y-99536513D01*
X185923429Y-99536507D01*
X185823600Y-99322422D01*
X185823599Y-99322420D01*
X185688113Y-99128926D01*
X185688108Y-99128920D01*
X185521082Y-98961894D01*
X185327578Y-98826399D01*
X185113492Y-98726570D01*
X185113486Y-98726567D01*
X184900000Y-98669364D01*
X184900000Y-99564498D01*
X184792315Y-99515320D01*
X184685763Y-99500000D01*
X184614237Y-99500000D01*
X184507685Y-99515320D01*
X184400000Y-99564498D01*
X184400000Y-98669364D01*
X184399999Y-98669364D01*
X184186513Y-98726567D01*
X184186507Y-98726570D01*
X183972422Y-98826399D01*
X183972420Y-98826400D01*
X183778926Y-98961886D01*
X183778920Y-98961891D01*
X183611891Y-99128920D01*
X183611886Y-99128926D01*
X183476400Y-99322420D01*
X183476399Y-99322422D01*
X183376570Y-99536507D01*
X183376567Y-99536513D01*
X183319364Y-99749999D01*
X183319364Y-99750000D01*
X184216314Y-99750000D01*
X184190507Y-99790156D01*
X184150000Y-99928111D01*
X184150000Y-100071889D01*
X184190507Y-100209844D01*
X184216314Y-100250000D01*
X183319364Y-100250000D01*
X183376567Y-100463486D01*
X183376570Y-100463492D01*
X183476399Y-100677578D01*
X183611894Y-100871082D01*
X183733946Y-100993134D01*
X183767431Y-101054457D01*
X183762447Y-101124149D01*
X183720575Y-101180082D01*
X183689598Y-101196997D01*
X183557671Y-101246202D01*
X183557664Y-101246206D01*
X183442455Y-101332452D01*
X183442452Y-101332455D01*
X183356206Y-101447664D01*
X183356202Y-101447671D01*
X183305908Y-101582517D01*
X183300944Y-101628695D01*
X183299501Y-101642123D01*
X183299500Y-101642135D01*
X183299500Y-103437870D01*
X179300499Y-103437870D01*
X179300499Y-102952128D01*
X179294091Y-102892517D01*
X179290718Y-102883474D01*
X179243797Y-102757671D01*
X179243793Y-102757664D01*
X179157547Y-102642455D01*
X179157544Y-102642452D01*
X179042335Y-102556206D01*
X179042328Y-102556202D01*
X178907482Y-102505908D01*
X178907483Y-102505908D01*
X178847883Y-102499501D01*
X178847881Y-102499500D01*
X178847873Y-102499500D01*
X178847864Y-102499500D01*
X177152129Y-102499500D01*
X177152123Y-102499501D01*
X177092516Y-102505908D01*
X176957671Y-102556202D01*
X176957664Y-102556206D01*
X176842455Y-102642452D01*
X176842452Y-102642455D01*
X176756206Y-102757664D01*
X176756202Y-102757671D01*
X176705908Y-102892517D01*
X176702941Y-102920121D01*
X176699501Y-102952123D01*
X176699500Y-102952135D01*
X176699500Y-104647870D01*
X169717217Y-104647870D01*
X169546497Y-104568261D01*
X169546488Y-104568258D01*
X169326697Y-104509366D01*
X169326693Y-104509365D01*
X169326692Y-104509365D01*
X169326691Y-104509364D01*
X169326686Y-104509364D01*
X169100002Y-104489532D01*
X169099998Y-104489532D01*
X168873313Y-104509364D01*
X168873302Y-104509366D01*
X168653511Y-104568258D01*
X168653502Y-104568261D01*
X168447267Y-104664431D01*
X168447265Y-104664432D01*
X168260858Y-104794954D01*
X168099954Y-104955858D01*
X167969432Y-105142265D01*
X167969431Y-105142267D01*
X167942382Y-105200275D01*
X167896209Y-105252714D01*
X167829016Y-105271866D01*
X167762135Y-105251650D01*
X167717618Y-105200275D01*
X167690568Y-105142267D01*
X167690567Y-105142265D01*
X167661322Y-105100499D01*
X167561227Y-104957546D01*
X167560045Y-104955858D01*
X167399141Y-104794954D01*
X167212734Y-104664432D01*
X167212732Y-104664431D01*
X167006492Y-104568259D01*
X167003500Y-104567170D01*
X167002367Y-104566336D01*
X167001589Y-104565973D01*
X167001662Y-104565816D01*
X166947241Y-104525736D01*
X166922314Y-104460465D01*
X166936632Y-104392078D01*
X166985650Y-104342288D01*
X166995471Y-104337382D01*
X167002730Y-104334151D01*
X167155871Y-104222888D01*
X167282533Y-104082216D01*
X167377179Y-103918284D01*
X167435674Y-103738256D01*
X167455460Y-103550000D01*
X167435674Y-103361744D01*
X167377179Y-103181716D01*
X167282533Y-103017784D01*
X167155871Y-102877112D01*
X167155870Y-102877111D01*
X167002734Y-102765851D01*
X167002729Y-102765848D01*
X166829807Y-102688857D01*
X166829802Y-102688855D01*
X166684001Y-102657865D01*
X166644646Y-102649500D01*
X166455354Y-102649500D01*
X166422897Y-102656398D01*
X166270197Y-102688855D01*
X166270192Y-102688857D01*
X166097270Y-102765848D01*
X166097265Y-102765851D01*
X165944130Y-102877110D01*
X165944126Y-102877114D01*
X165938400Y-102883474D01*
X165878913Y-102920121D01*
X165846252Y-102924500D01*
X159540452Y-102924500D01*
X159473413Y-102904815D01*
X159452771Y-102888181D01*
X159261819Y-102697228D01*
X159228334Y-102635905D01*
X159225500Y-102609547D01*
X159225500Y-100298687D01*
X159245185Y-100231648D01*
X159257350Y-100215715D01*
X159275891Y-100195122D01*
X159332533Y-100132216D01*
X159427179Y-99968284D01*
X159485674Y-99788256D01*
X159505460Y-99600000D01*
X159485674Y-99411744D01*
X159427179Y-99231716D01*
X159332533Y-99067784D01*
X159300118Y-99031784D01*
X160179500Y-99031784D01*
X160194364Y-99201687D01*
X160194366Y-99201697D01*
X160253258Y-99421488D01*
X160253261Y-99421497D01*
X160349431Y-99627732D01*
X160349432Y-99627734D01*
X160479954Y-99814141D01*
X160640858Y-99975045D01*
X160640861Y-99975047D01*
X160827266Y-100105568D01*
X161033504Y-100201739D01*
X161253308Y-100260635D01*
X161415230Y-100274801D01*
X161479998Y-100280468D01*
X161480000Y-100280468D01*
X161480002Y-100280468D01*
X161542511Y-100274999D01*
X161706692Y-100260635D01*
X161926496Y-100201739D01*
X162132734Y-100105568D01*
X162319139Y-99975047D01*
X162480047Y-99814139D01*
X162610568Y-99627734D01*
X162637618Y-99569724D01*
X162683790Y-99517285D01*
X162750983Y-99498133D01*
X162817865Y-99518348D01*
X162862382Y-99569725D01*
X162889429Y-99627728D01*
X162889432Y-99627734D01*
X163019954Y-99814141D01*
X163180858Y-99975045D01*
X163180861Y-99975047D01*
X163367266Y-100105568D01*
X163573504Y-100201739D01*
X163793308Y-100260635D01*
X163955230Y-100274801D01*
X164019998Y-100280468D01*
X164020000Y-100280468D01*
X164020002Y-100280468D01*
X164082511Y-100274999D01*
X164246692Y-100260635D01*
X164466496Y-100201739D01*
X164672734Y-100105568D01*
X164859139Y-99975047D01*
X165020047Y-99814139D01*
X165150568Y-99627734D01*
X165177618Y-99569724D01*
X165223790Y-99517285D01*
X165290983Y-99498133D01*
X165357865Y-99518348D01*
X165402382Y-99569725D01*
X165429429Y-99627728D01*
X165429432Y-99627734D01*
X165559954Y-99814141D01*
X165720858Y-99975045D01*
X165720861Y-99975047D01*
X165907266Y-100105568D01*
X166113504Y-100201739D01*
X166333308Y-100260635D01*
X166495230Y-100274801D01*
X166559998Y-100280468D01*
X166560000Y-100280468D01*
X166560002Y-100280468D01*
X166622511Y-100274999D01*
X166786692Y-100260635D01*
X167006496Y-100201739D01*
X167212734Y-100105568D01*
X167399139Y-99975047D01*
X167560047Y-99814139D01*
X167577710Y-99788912D01*
X167632285Y-99745289D01*
X167701783Y-99738094D01*
X167764138Y-99769615D01*
X167799553Y-99829844D01*
X167802574Y-99846778D01*
X167806401Y-99882373D01*
X167806403Y-99882379D01*
X167856645Y-100017086D01*
X167856649Y-100017093D01*
X167942809Y-100132187D01*
X167942812Y-100132190D01*
X168057906Y-100218350D01*
X168057913Y-100218354D01*
X168192620Y-100268596D01*
X168192627Y-100268598D01*
X168252155Y-100274999D01*
X168252172Y-100275000D01*
X168850000Y-100275000D01*
X168850000Y-98890686D01*
X168861955Y-98902641D01*
X168974852Y-98960165D01*
X169068519Y-98975000D01*
X169131481Y-98975000D01*
X169225148Y-98960165D01*
X169338045Y-98902641D01*
X169350000Y-98890686D01*
X169350000Y-100275000D01*
X169947828Y-100275000D01*
X169947844Y-100274999D01*
X170007372Y-100268598D01*
X170007379Y-100268596D01*
X170142086Y-100218354D01*
X170142093Y-100218350D01*
X170257187Y-100132190D01*
X170257190Y-100132187D01*
X170343350Y-100017093D01*
X170343354Y-100017086D01*
X170393596Y-99882379D01*
X170393598Y-99882372D01*
X170399999Y-99822844D01*
X170400000Y-99822827D01*
X170400000Y-98825000D01*
X169415686Y-98825000D01*
X169427641Y-98813045D01*
X169434287Y-98800002D01*
X176695034Y-98800002D01*
X176714858Y-99026599D01*
X176714860Y-99026610D01*
X176773730Y-99246317D01*
X176773734Y-99246326D01*
X176869865Y-99452481D01*
X176869866Y-99452483D01*
X176920973Y-99525471D01*
X176920974Y-99525472D01*
X177602046Y-98844399D01*
X177614835Y-98925148D01*
X177672359Y-99038045D01*
X177761955Y-99127641D01*
X177874852Y-99185165D01*
X177955599Y-99197953D01*
X177274526Y-99879025D01*
X177274526Y-99879026D01*
X177347512Y-99930131D01*
X177347516Y-99930133D01*
X177553673Y-100026265D01*
X177553682Y-100026269D01*
X177773389Y-100085139D01*
X177773400Y-100085141D01*
X177999998Y-100104966D01*
X178000002Y-100104966D01*
X178226599Y-100085141D01*
X178226610Y-100085139D01*
X178446317Y-100026269D01*
X178446331Y-100026264D01*
X178652478Y-99930136D01*
X178725472Y-99879025D01*
X178044401Y-99197953D01*
X178125148Y-99185165D01*
X178238045Y-99127641D01*
X178327641Y-99038045D01*
X178385165Y-98925148D01*
X178397953Y-98844400D01*
X179079025Y-99525472D01*
X179130136Y-99452478D01*
X179226264Y-99246331D01*
X179226269Y-99246317D01*
X179285139Y-99026610D01*
X179285141Y-99026599D01*
X179304966Y-98800002D01*
X179304966Y-98799997D01*
X179285141Y-98573400D01*
X179285139Y-98573389D01*
X179226269Y-98353682D01*
X179226265Y-98353673D01*
X179130133Y-98147516D01*
X179130131Y-98147512D01*
X179079026Y-98074526D01*
X179079025Y-98074526D01*
X178397953Y-98755598D01*
X178385165Y-98674852D01*
X178327641Y-98561955D01*
X178238045Y-98472359D01*
X178125148Y-98414835D01*
X178044400Y-98402046D01*
X178725472Y-97720974D01*
X178725471Y-97720973D01*
X178652483Y-97669866D01*
X178652481Y-97669865D01*
X178446326Y-97573734D01*
X178446317Y-97573730D01*
X178226610Y-97514860D01*
X178226599Y-97514858D01*
X178000002Y-97495034D01*
X177999998Y-97495034D01*
X177773400Y-97514858D01*
X177773389Y-97514860D01*
X177553682Y-97573730D01*
X177553673Y-97573734D01*
X177347513Y-97669868D01*
X177274527Y-97720972D01*
X177274526Y-97720973D01*
X177955600Y-98402046D01*
X177874852Y-98414835D01*
X177761955Y-98472359D01*
X177672359Y-98561955D01*
X177614835Y-98674852D01*
X177602046Y-98755599D01*
X176920973Y-98074526D01*
X176920972Y-98074527D01*
X176869868Y-98147513D01*
X176773734Y-98353673D01*
X176773730Y-98353682D01*
X176714860Y-98573389D01*
X176714858Y-98573400D01*
X176695034Y-98799997D01*
X176695034Y-98800002D01*
X169434287Y-98800002D01*
X169485165Y-98700148D01*
X169504986Y-98575000D01*
X169485165Y-98449852D01*
X169427641Y-98336955D01*
X169415686Y-98325000D01*
X170400000Y-98325000D01*
X170400000Y-97327172D01*
X170399999Y-97327155D01*
X170393598Y-97267627D01*
X170393596Y-97267620D01*
X170343354Y-97132913D01*
X170343350Y-97132906D01*
X170257190Y-97017812D01*
X170257187Y-97017809D01*
X170142093Y-96931649D01*
X170142086Y-96931645D01*
X170007379Y-96881403D01*
X170007372Y-96881401D01*
X169947844Y-96875000D01*
X169350000Y-96875000D01*
X169350000Y-98259314D01*
X169338045Y-98247359D01*
X169225148Y-98189835D01*
X169131481Y-98175000D01*
X169068519Y-98175000D01*
X168974852Y-98189835D01*
X168861955Y-98247359D01*
X168850000Y-98259314D01*
X168850000Y-96875000D01*
X168252155Y-96875000D01*
X168192627Y-96881401D01*
X168192620Y-96881403D01*
X168057913Y-96931645D01*
X168057906Y-96931649D01*
X167942812Y-97017809D01*
X167942809Y-97017812D01*
X167856649Y-97132906D01*
X167856645Y-97132913D01*
X167806403Y-97267620D01*
X167806401Y-97267626D01*
X167802574Y-97303221D01*
X167775835Y-97367772D01*
X167718441Y-97407618D01*
X167648616Y-97410110D01*
X167588528Y-97374456D01*
X167577710Y-97361086D01*
X167560045Y-97335858D01*
X167399141Y-97174954D01*
X167212734Y-97044432D01*
X167212732Y-97044431D01*
X167006497Y-96948261D01*
X167006488Y-96948258D01*
X166786697Y-96889366D01*
X166786693Y-96889365D01*
X166786692Y-96889365D01*
X166786691Y-96889364D01*
X166786686Y-96889364D01*
X166560002Y-96869532D01*
X166559998Y-96869532D01*
X166333313Y-96889364D01*
X166333302Y-96889366D01*
X166113511Y-96948258D01*
X166113502Y-96948261D01*
X165907267Y-97044431D01*
X165907265Y-97044432D01*
X165720858Y-97174954D01*
X165559954Y-97335858D01*
X165429432Y-97522265D01*
X165429431Y-97522267D01*
X165402382Y-97580275D01*
X165356209Y-97632714D01*
X165289016Y-97651866D01*
X165222135Y-97631650D01*
X165177618Y-97580275D01*
X165150568Y-97522267D01*
X165150567Y-97522265D01*
X165020045Y-97335858D01*
X164859141Y-97174954D01*
X164672734Y-97044432D01*
X164672732Y-97044431D01*
X164466497Y-96948261D01*
X164466488Y-96948258D01*
X164246697Y-96889366D01*
X164246693Y-96889365D01*
X164246692Y-96889365D01*
X164246691Y-96889364D01*
X164246686Y-96889364D01*
X164020002Y-96869532D01*
X164019998Y-96869532D01*
X163793313Y-96889364D01*
X163793302Y-96889366D01*
X163573511Y-96948258D01*
X163573502Y-96948261D01*
X163367267Y-97044431D01*
X163367265Y-97044432D01*
X163180858Y-97174954D01*
X163019954Y-97335858D01*
X162889432Y-97522265D01*
X162889431Y-97522267D01*
X162862382Y-97580275D01*
X162816209Y-97632714D01*
X162749016Y-97651866D01*
X162682135Y-97631650D01*
X162637618Y-97580275D01*
X162610568Y-97522267D01*
X162610567Y-97522265D01*
X162480045Y-97335858D01*
X162319141Y-97174954D01*
X162132734Y-97044432D01*
X162132732Y-97044431D01*
X161926497Y-96948261D01*
X161926488Y-96948258D01*
X161706697Y-96889366D01*
X161706693Y-96889365D01*
X161706692Y-96889365D01*
X161706691Y-96889364D01*
X161706686Y-96889364D01*
X161480002Y-96869532D01*
X161479998Y-96869532D01*
X161253313Y-96889364D01*
X161253302Y-96889366D01*
X161033511Y-96948258D01*
X161033502Y-96948261D01*
X160827267Y-97044431D01*
X160827265Y-97044432D01*
X160640858Y-97174954D01*
X160479954Y-97335858D01*
X160349432Y-97522265D01*
X160349431Y-97522267D01*
X160253261Y-97728502D01*
X160253258Y-97728511D01*
X160194366Y-97948302D01*
X160194364Y-97948312D01*
X160179500Y-98118216D01*
X160179500Y-99031784D01*
X159300118Y-99031784D01*
X159205871Y-98927112D01*
X159203168Y-98925148D01*
X159052734Y-98815851D01*
X159052729Y-98815848D01*
X158879807Y-98738857D01*
X158879802Y-98738855D01*
X158734001Y-98707865D01*
X158694646Y-98699500D01*
X158505354Y-98699500D01*
X158472897Y-98706398D01*
X158320197Y-98738855D01*
X158320192Y-98738857D01*
X158147270Y-98815848D01*
X158147265Y-98815851D01*
X157994129Y-98927111D01*
X157867466Y-99067785D01*
X157772821Y-99231715D01*
X157772818Y-99231722D01*
X157714327Y-99411740D01*
X157714326Y-99411744D01*
X157694540Y-99600000D01*
X154773803Y-99600000D01*
X154786134Y-99551305D01*
X154787360Y-99536513D01*
X154805300Y-99320006D01*
X154805300Y-99319993D01*
X154786135Y-99088702D01*
X154786133Y-99088691D01*
X154729157Y-98863699D01*
X154635924Y-98651151D01*
X154508983Y-98456852D01*
X154508980Y-98456849D01*
X154508979Y-98456847D01*
X154351784Y-98286087D01*
X154351779Y-98286083D01*
X154351777Y-98286081D01*
X154168634Y-98143535D01*
X154168628Y-98143531D01*
X153964504Y-98033064D01*
X153964495Y-98033061D01*
X153744984Y-97957702D01*
X153573282Y-97929050D01*
X153516049Y-97919500D01*
X153283951Y-97919500D01*
X153238164Y-97927140D01*
X153055015Y-97957702D01*
X152835504Y-98033061D01*
X152835495Y-98033064D01*
X152631371Y-98143531D01*
X152631365Y-98143535D01*
X152448222Y-98286081D01*
X152448219Y-98286084D01*
X152291016Y-98456852D01*
X152164075Y-98651151D01*
X152070842Y-98863699D01*
X152013866Y-99088691D01*
X152013864Y-99088702D01*
X151994700Y-99319993D01*
X151994700Y-99320006D01*
X152013864Y-99551297D01*
X152013866Y-99551308D01*
X152070842Y-99776300D01*
X152164075Y-99988848D01*
X152291016Y-100183147D01*
X152291019Y-100183151D01*
X152291021Y-100183153D01*
X152448216Y-100353913D01*
X152448219Y-100353915D01*
X152448222Y-100353918D01*
X152625818Y-100492147D01*
X152666631Y-100548857D01*
X152670306Y-100618630D01*
X152635674Y-100679313D01*
X152625818Y-100687853D01*
X152448222Y-100826081D01*
X152448219Y-100826084D01*
X152291016Y-100996852D01*
X152164075Y-101191151D01*
X152070842Y-101403699D01*
X152013866Y-101628691D01*
X152013864Y-101628702D01*
X151994700Y-101859993D01*
X151994700Y-101860006D01*
X152013864Y-102091297D01*
X152013866Y-102091308D01*
X152070842Y-102316300D01*
X152164075Y-102528848D01*
X152291016Y-102723147D01*
X152291019Y-102723151D01*
X152291021Y-102723153D01*
X152448216Y-102893913D01*
X152448219Y-102893915D01*
X152448222Y-102893918D01*
X152625818Y-103032147D01*
X152666631Y-103088857D01*
X152670306Y-103158630D01*
X152635674Y-103219313D01*
X152625818Y-103227853D01*
X152448222Y-103366081D01*
X152448219Y-103366084D01*
X152291016Y-103536852D01*
X152164075Y-103731151D01*
X152070842Y-103943699D01*
X152013866Y-104168691D01*
X152013864Y-104168702D01*
X151994700Y-104399993D01*
X151994700Y-104400006D01*
X146000000Y-104400006D01*
X146000000Y-93357870D01*
X148799500Y-93357870D01*
X148799501Y-93357876D01*
X148805908Y-93417483D01*
X148856202Y-93552328D01*
X148856206Y-93552335D01*
X148942452Y-93667544D01*
X148942455Y-93667547D01*
X149057664Y-93753793D01*
X149057671Y-93753797D01*
X149192517Y-93804091D01*
X149192516Y-93804091D01*
X149199444Y-93804835D01*
X149252127Y-93810500D01*
X151547872Y-93810499D01*
X151607483Y-93804091D01*
X151742331Y-93753796D01*
X151857546Y-93667546D01*
X151943796Y-93552331D01*
X151994091Y-93417483D01*
X152000500Y-93357873D01*
X152000499Y-92210000D01*
X153794551Y-92210000D01*
X153814317Y-92461151D01*
X153873126Y-92706110D01*
X153969533Y-92938859D01*
X154101160Y-93153653D01*
X154101161Y-93153656D01*
X154156604Y-93218571D01*
X154264776Y-93345224D01*
X154402360Y-93462732D01*
X154456343Y-93508838D01*
X154456346Y-93508839D01*
X154671140Y-93640466D01*
X154903889Y-93736873D01*
X155148852Y-93795683D01*
X155400000Y-93815449D01*
X155651148Y-93795683D01*
X155896111Y-93736873D01*
X156128859Y-93640466D01*
X156343659Y-93508836D01*
X156535224Y-93345224D01*
X156698836Y-93153659D01*
X156830466Y-92938859D01*
X156883841Y-92810001D01*
X162694532Y-92810001D01*
X162714364Y-93036686D01*
X162714366Y-93036697D01*
X162773258Y-93256488D01*
X162773261Y-93256497D01*
X162869431Y-93462732D01*
X162869432Y-93462734D01*
X162999954Y-93649141D01*
X163160858Y-93810045D01*
X163161508Y-93810500D01*
X163347266Y-93940568D01*
X163553504Y-94036739D01*
X163773308Y-94095635D01*
X163935230Y-94109801D01*
X163999998Y-94115468D01*
X164000000Y-94115468D01*
X164000002Y-94115468D01*
X164056673Y-94110509D01*
X164226692Y-94095635D01*
X164446496Y-94036739D01*
X164652734Y-93940568D01*
X164839139Y-93810047D01*
X165000047Y-93649139D01*
X165130568Y-93462734D01*
X165226739Y-93256496D01*
X165285635Y-93036692D01*
X165288813Y-93000370D01*
X169499500Y-93000370D01*
X169499501Y-93000376D01*
X169505908Y-93059983D01*
X169556202Y-93194828D01*
X169556206Y-93194835D01*
X169642452Y-93310044D01*
X169642455Y-93310047D01*
X169757664Y-93396293D01*
X169757671Y-93396297D01*
X169892517Y-93446591D01*
X169892516Y-93446591D01*
X169899444Y-93447335D01*
X169952127Y-93453000D01*
X172047872Y-93452999D01*
X172107483Y-93446591D01*
X172242331Y-93396296D01*
X172357546Y-93310046D01*
X172443796Y-93194831D01*
X172475436Y-93110000D01*
X176094551Y-93110000D01*
X176114317Y-93361151D01*
X176173126Y-93606110D01*
X176269533Y-93838859D01*
X176401160Y-94053653D01*
X176401161Y-94053656D01*
X176401164Y-94053659D01*
X176564776Y-94245224D01*
X176713066Y-94371875D01*
X176756343Y-94408838D01*
X176756346Y-94408839D01*
X176971140Y-94540466D01*
X177203889Y-94636873D01*
X177448852Y-94695683D01*
X177700000Y-94715449D01*
X177951148Y-94695683D01*
X178196111Y-94636873D01*
X178428859Y-94540466D01*
X178643659Y-94408836D01*
X178835224Y-94245224D01*
X178998836Y-94053659D01*
X179130466Y-93838859D01*
X179226873Y-93606111D01*
X179285683Y-93361148D01*
X179305449Y-93110000D01*
X179285683Y-92858852D01*
X179226873Y-92613889D01*
X179214206Y-92583308D01*
X179162512Y-92458506D01*
X188519500Y-92458506D01*
X188535762Y-92555963D01*
X188560157Y-92702153D01*
X188640359Y-92935771D01*
X188640362Y-92935780D01*
X188757928Y-93153022D01*
X188757932Y-93153028D01*
X188909639Y-93347941D01*
X188909641Y-93347943D01*
X188909645Y-93347948D01*
X189091379Y-93515245D01*
X189298169Y-93650348D01*
X189524377Y-93749572D01*
X189763831Y-93810210D01*
X189948355Y-93825500D01*
X189948357Y-93825500D01*
X192051643Y-93825500D01*
X192051645Y-93825500D01*
X192236169Y-93810210D01*
X192475623Y-93749572D01*
X192701831Y-93650348D01*
X192908621Y-93515245D01*
X193090355Y-93347948D01*
X193241578Y-93153656D01*
X193242067Y-93153028D01*
X193242071Y-93153022D01*
X193242073Y-93153020D01*
X193359638Y-92935779D01*
X193439843Y-92702150D01*
X193480500Y-92458506D01*
X193480500Y-92211494D01*
X193439843Y-91967850D01*
X193359638Y-91734221D01*
X193242073Y-91516980D01*
X193242071Y-91516977D01*
X193242067Y-91516971D01*
X193090360Y-91322058D01*
X193090357Y-91322055D01*
X193090355Y-91322052D01*
X192908621Y-91154755D01*
X192908618Y-91154753D01*
X192908617Y-91154752D01*
X192786204Y-91074776D01*
X192701831Y-91019652D01*
X192701828Y-91019650D01*
X192701827Y-91019650D01*
X192475623Y-90920428D01*
X192439028Y-90911161D01*
X192236169Y-90859790D01*
X192236168Y-90859789D01*
X192236165Y-90859789D01*
X192088297Y-90847537D01*
X192051645Y-90844500D01*
X189948355Y-90844500D01*
X189915014Y-90847262D01*
X189763834Y-90859789D01*
X189524376Y-90920428D01*
X189298172Y-91019650D01*
X189091382Y-91154752D01*
X189091379Y-91154755D01*
X188970162Y-91266343D01*
X188909642Y-91322055D01*
X188909639Y-91322058D01*
X188757932Y-91516971D01*
X188757928Y-91516977D01*
X188640362Y-91734219D01*
X188640359Y-91734228D01*
X188560157Y-91967846D01*
X188559001Y-91974776D01*
X188519500Y-92211494D01*
X188519500Y-92458506D01*
X179162512Y-92458506D01*
X179130466Y-92381140D01*
X178998839Y-92166346D01*
X178998838Y-92166343D01*
X178961875Y-92123066D01*
X178835224Y-91974776D01*
X178708571Y-91866604D01*
X178643656Y-91811161D01*
X178643653Y-91811160D01*
X178428859Y-91679533D01*
X178196110Y-91583126D01*
X177951151Y-91524317D01*
X177700000Y-91504551D01*
X177448848Y-91524317D01*
X177203889Y-91583126D01*
X176971140Y-91679533D01*
X176756346Y-91811160D01*
X176756343Y-91811161D01*
X176564776Y-91974776D01*
X176401161Y-92166343D01*
X176401160Y-92166346D01*
X176269533Y-92381140D01*
X176173126Y-92613889D01*
X176114317Y-92858848D01*
X176094551Y-93110000D01*
X172475436Y-93110000D01*
X172494091Y-93059983D01*
X172500500Y-93000373D01*
X172500499Y-90999628D01*
X172494091Y-90940017D01*
X172483328Y-90911161D01*
X172443797Y-90805171D01*
X172443793Y-90805164D01*
X172357547Y-90689955D01*
X172357544Y-90689952D01*
X172242335Y-90603706D01*
X172242328Y-90603702D01*
X172211687Y-90592274D01*
X172155753Y-90550403D01*
X172131336Y-90484938D01*
X172146188Y-90416665D01*
X172157161Y-90399937D01*
X172268072Y-90257439D01*
X172382679Y-90045664D01*
X172460866Y-89817913D01*
X172500500Y-89580399D01*
X172500500Y-89339601D01*
X172460866Y-89102087D01*
X172382679Y-88874336D01*
X172268072Y-88662561D01*
X172120171Y-88472537D01*
X172011904Y-88372870D01*
X188519500Y-88372870D01*
X188519501Y-88372876D01*
X188525908Y-88432483D01*
X188576202Y-88567328D01*
X188576206Y-88567335D01*
X188662452Y-88682544D01*
X188662455Y-88682547D01*
X188777664Y-88768793D01*
X188777671Y-88768797D01*
X188912517Y-88819091D01*
X188912516Y-88819091D01*
X188919444Y-88819835D01*
X188972127Y-88825500D01*
X193027872Y-88825499D01*
X193087483Y-88819091D01*
X193222331Y-88768796D01*
X193337546Y-88682546D01*
X193423796Y-88567331D01*
X193474091Y-88432483D01*
X193480500Y-88372873D01*
X193480499Y-86297128D01*
X193474091Y-86237517D01*
X193458400Y-86195448D01*
X193423797Y-86102671D01*
X193423793Y-86102664D01*
X193337547Y-85987455D01*
X193337544Y-85987452D01*
X193222335Y-85901206D01*
X193222328Y-85901202D01*
X193087482Y-85850908D01*
X193087483Y-85850908D01*
X193027883Y-85844501D01*
X193027881Y-85844500D01*
X193027873Y-85844500D01*
X193027864Y-85844500D01*
X188972129Y-85844500D01*
X188972123Y-85844501D01*
X188912516Y-85850908D01*
X188777671Y-85901202D01*
X188777664Y-85901206D01*
X188662455Y-85987452D01*
X188662452Y-85987455D01*
X188576206Y-86102664D01*
X188576202Y-86102671D01*
X188525908Y-86237517D01*
X188519501Y-86297116D01*
X188519501Y-86297123D01*
X188519500Y-86297135D01*
X188519500Y-88372870D01*
X172011904Y-88372870D01*
X171943010Y-88309449D01*
X171943007Y-88309446D01*
X171918614Y-88293510D01*
X171873257Y-88240364D01*
X171863833Y-88171132D01*
X171893335Y-88107796D01*
X171918616Y-88085891D01*
X171942701Y-88070155D01*
X171942702Y-88070154D01*
X172119797Y-87907126D01*
X172119806Y-87907116D01*
X172267649Y-87717168D01*
X172267655Y-87717159D01*
X172382215Y-87505468D01*
X172382221Y-87505454D01*
X172460380Y-87277791D01*
X172478367Y-87170000D01*
X171494852Y-87170000D01*
X171543559Y-87032953D01*
X171553877Y-86882114D01*
X171523116Y-86734085D01*
X171489910Y-86670000D01*
X172478366Y-86670000D01*
X172478366Y-86669999D01*
X172473005Y-86637870D01*
X176099500Y-86637870D01*
X176099501Y-86637876D01*
X176105908Y-86697483D01*
X176156202Y-86832328D01*
X176156206Y-86832335D01*
X176242452Y-86947544D01*
X176242455Y-86947547D01*
X176357664Y-87033793D01*
X176357671Y-87033797D01*
X176492517Y-87084091D01*
X176492516Y-87084091D01*
X176499444Y-87084835D01*
X176552127Y-87090500D01*
X178847872Y-87090499D01*
X178907483Y-87084091D01*
X179042331Y-87033796D01*
X179157546Y-86947546D01*
X179243796Y-86832331D01*
X179294091Y-86697483D01*
X179300500Y-86637873D01*
X179300499Y-84342128D01*
X179294091Y-84282517D01*
X179243796Y-84147669D01*
X179243795Y-84147668D01*
X179243793Y-84147664D01*
X179157547Y-84032455D01*
X179157544Y-84032452D01*
X179042335Y-83946206D01*
X179042328Y-83946202D01*
X178907482Y-83895908D01*
X178907483Y-83895908D01*
X178847883Y-83889501D01*
X178847881Y-83889500D01*
X178847873Y-83889500D01*
X178847864Y-83889500D01*
X176552129Y-83889500D01*
X176552123Y-83889501D01*
X176492516Y-83895908D01*
X176357671Y-83946202D01*
X176357664Y-83946206D01*
X176242455Y-84032452D01*
X176242452Y-84032455D01*
X176156206Y-84147664D01*
X176156202Y-84147671D01*
X176105908Y-84282517D01*
X176099852Y-84338852D01*
X176099501Y-84342123D01*
X176099500Y-84342135D01*
X176099500Y-86637870D01*
X172473005Y-86637870D01*
X172460380Y-86562208D01*
X172382221Y-86334545D01*
X172382215Y-86334531D01*
X172267655Y-86122840D01*
X172267649Y-86122831D01*
X172119806Y-85932883D01*
X172119797Y-85932873D01*
X171942710Y-85769851D01*
X171942699Y-85769843D01*
X171741184Y-85638186D01*
X171520739Y-85541491D01*
X171520740Y-85541491D01*
X171287391Y-85482399D01*
X171250000Y-85479300D01*
X171250000Y-86428316D01*
X171221181Y-86410791D01*
X171075596Y-86370000D01*
X170962378Y-86370000D01*
X170850217Y-86385416D01*
X170750000Y-86428946D01*
X170750000Y-85479300D01*
X170749999Y-85479300D01*
X170712608Y-85482399D01*
X170479259Y-85541491D01*
X170258815Y-85638186D01*
X170057300Y-85769843D01*
X170057289Y-85769851D01*
X169880202Y-85932873D01*
X169880193Y-85932883D01*
X169732350Y-86122831D01*
X169732344Y-86122840D01*
X169617784Y-86334531D01*
X169617778Y-86334545D01*
X169539619Y-86562208D01*
X169521633Y-86669999D01*
X169521634Y-86670000D01*
X170505148Y-86670000D01*
X170456441Y-86807047D01*
X170446123Y-86957886D01*
X170476884Y-87105915D01*
X170510090Y-87170000D01*
X169521633Y-87170000D01*
X169539619Y-87277791D01*
X169617778Y-87505454D01*
X169617784Y-87505468D01*
X169732344Y-87717159D01*
X169732350Y-87717168D01*
X169880193Y-87907116D01*
X169880202Y-87907126D01*
X170057297Y-88070154D01*
X170057296Y-88070154D01*
X170081385Y-88085892D01*
X170126742Y-88139038D01*
X170136166Y-88208269D01*
X170106664Y-88271605D01*
X170081389Y-88293507D01*
X170056994Y-88309446D01*
X170056988Y-88309450D01*
X169988082Y-88372883D01*
X169879829Y-88472537D01*
X169836305Y-88528456D01*
X169731929Y-88662558D01*
X169617321Y-88874334D01*
X169617318Y-88874343D01*
X169539134Y-89102083D01*
X169499500Y-89339602D01*
X169499500Y-89580397D01*
X169539134Y-89817916D01*
X169617318Y-90045656D01*
X169617321Y-90045665D01*
X169731929Y-90257441D01*
X169731933Y-90257447D01*
X169842832Y-90399930D01*
X169868475Y-90464924D01*
X169854908Y-90533464D01*
X169806440Y-90583788D01*
X169788313Y-90592273D01*
X169757675Y-90603700D01*
X169757664Y-90603706D01*
X169642455Y-90689952D01*
X169642452Y-90689955D01*
X169556206Y-90805164D01*
X169556202Y-90805171D01*
X169505908Y-90940017D01*
X169499501Y-90999616D01*
X169499501Y-90999623D01*
X169499500Y-90999635D01*
X169499500Y-93000370D01*
X165288813Y-93000370D01*
X165305468Y-92810000D01*
X165285635Y-92583308D01*
X165226739Y-92363504D01*
X165130568Y-92157266D01*
X165000047Y-91970861D01*
X165000045Y-91970858D01*
X164839141Y-91809954D01*
X164652734Y-91679432D01*
X164652732Y-91679431D01*
X164446497Y-91583261D01*
X164446488Y-91583258D01*
X164226697Y-91524366D01*
X164226693Y-91524365D01*
X164226692Y-91524365D01*
X164226691Y-91524364D01*
X164226686Y-91524364D01*
X164000002Y-91504532D01*
X163999998Y-91504532D01*
X163773313Y-91524364D01*
X163773302Y-91524366D01*
X163553511Y-91583258D01*
X163553502Y-91583261D01*
X163347267Y-91679431D01*
X163347265Y-91679432D01*
X163160858Y-91809954D01*
X162999954Y-91970858D01*
X162869432Y-92157265D01*
X162869431Y-92157267D01*
X162773261Y-92363502D01*
X162773258Y-92363511D01*
X162714366Y-92583302D01*
X162714364Y-92583313D01*
X162694532Y-92809998D01*
X162694532Y-92810001D01*
X156883841Y-92810001D01*
X156926873Y-92706111D01*
X156985683Y-92461148D01*
X157005449Y-92210000D01*
X156985683Y-91958852D01*
X156926873Y-91713889D01*
X156912642Y-91679533D01*
X156830466Y-91481140D01*
X156698839Y-91266346D01*
X156698838Y-91266343D01*
X156661875Y-91223066D01*
X156535224Y-91074776D01*
X156377442Y-90940017D01*
X156343656Y-90911161D01*
X156343653Y-90911160D01*
X156128859Y-90779533D01*
X155896110Y-90683126D01*
X155651151Y-90624317D01*
X155400000Y-90604551D01*
X155148848Y-90624317D01*
X154903889Y-90683126D01*
X154671140Y-90779533D01*
X154456346Y-90911160D01*
X154456343Y-90911161D01*
X154264776Y-91074776D01*
X154101161Y-91266343D01*
X154101160Y-91266346D01*
X153969533Y-91481140D01*
X153873126Y-91713889D01*
X153814317Y-91958848D01*
X153794551Y-92210000D01*
X152000499Y-92210000D01*
X152000499Y-91062128D01*
X151994091Y-91002517D01*
X151993013Y-90999628D01*
X151943797Y-90867671D01*
X151943793Y-90867664D01*
X151857547Y-90752455D01*
X151857544Y-90752452D01*
X151742335Y-90666206D01*
X151742328Y-90666202D01*
X151607482Y-90615908D01*
X151607483Y-90615908D01*
X151547883Y-90609501D01*
X151547881Y-90609500D01*
X151547873Y-90609500D01*
X151547864Y-90609500D01*
X149252129Y-90609500D01*
X149252123Y-90609501D01*
X149192516Y-90615908D01*
X149057671Y-90666202D01*
X149057664Y-90666206D01*
X148942455Y-90752452D01*
X148942452Y-90752455D01*
X148856206Y-90867664D01*
X148856202Y-90867671D01*
X148805908Y-91002517D01*
X148799501Y-91062116D01*
X148799501Y-91062123D01*
X148799500Y-91062135D01*
X148799500Y-93357870D01*
X146000000Y-93357870D01*
X146000000Y-84590000D01*
X148794551Y-84590000D01*
X148814317Y-84841151D01*
X148873126Y-85086110D01*
X148969533Y-85318859D01*
X149101160Y-85533653D01*
X149101161Y-85533656D01*
X149101164Y-85533659D01*
X149264776Y-85725224D01*
X149404430Y-85844500D01*
X149456343Y-85888838D01*
X149456346Y-85888839D01*
X149671140Y-86020466D01*
X149869585Y-86102664D01*
X149903889Y-86116873D01*
X150148852Y-86175683D01*
X150400000Y-86195449D01*
X150651148Y-86175683D01*
X150896111Y-86116873D01*
X151128859Y-86020466D01*
X151343659Y-85888836D01*
X151520417Y-85737870D01*
X153799500Y-85737870D01*
X153799501Y-85737876D01*
X153805908Y-85797483D01*
X153856202Y-85932328D01*
X153856206Y-85932335D01*
X153942452Y-86047544D01*
X153942455Y-86047547D01*
X154057664Y-86133793D01*
X154057671Y-86133797D01*
X154192517Y-86184091D01*
X154192516Y-86184091D01*
X154199444Y-86184835D01*
X154252127Y-86190500D01*
X156547872Y-86190499D01*
X156607483Y-86184091D01*
X156742331Y-86133796D01*
X156857546Y-86047546D01*
X156943796Y-85932331D01*
X156994091Y-85797483D01*
X157000500Y-85737873D01*
X157000500Y-84939999D01*
X162721127Y-84939999D01*
X162721128Y-84940000D01*
X163684314Y-84940000D01*
X163672359Y-84951955D01*
X163614835Y-85064852D01*
X163595014Y-85190000D01*
X163614835Y-85315148D01*
X163672359Y-85428045D01*
X163684314Y-85440000D01*
X162721128Y-85440000D01*
X162773730Y-85636317D01*
X162773734Y-85636326D01*
X162869865Y-85842482D01*
X163000342Y-86028820D01*
X163161179Y-86189657D01*
X163347517Y-86320134D01*
X163553673Y-86416265D01*
X163553682Y-86416269D01*
X163749999Y-86468872D01*
X163750000Y-86468871D01*
X163750000Y-85505686D01*
X163761955Y-85517641D01*
X163874852Y-85575165D01*
X163968519Y-85590000D01*
X164031481Y-85590000D01*
X164125148Y-85575165D01*
X164238045Y-85517641D01*
X164250000Y-85505686D01*
X164250000Y-86468872D01*
X164446317Y-86416269D01*
X164446326Y-86416265D01*
X164652482Y-86320134D01*
X164838820Y-86189657D01*
X164999657Y-86028820D01*
X165130134Y-85842482D01*
X165226265Y-85636326D01*
X165226269Y-85636317D01*
X165278872Y-85440000D01*
X164315686Y-85440000D01*
X164327641Y-85428045D01*
X164385165Y-85315148D01*
X164404986Y-85190000D01*
X164385165Y-85064852D01*
X164327641Y-84951955D01*
X164315686Y-84940000D01*
X165278872Y-84940000D01*
X165278872Y-84939999D01*
X165226269Y-84743682D01*
X165226265Y-84743673D01*
X165130134Y-84537517D01*
X164999657Y-84351179D01*
X164838820Y-84190342D01*
X164652482Y-84059865D01*
X164446328Y-83963734D01*
X164250000Y-83911127D01*
X164250000Y-84874314D01*
X164238045Y-84862359D01*
X164125148Y-84804835D01*
X164031481Y-84790000D01*
X163968519Y-84790000D01*
X163874852Y-84804835D01*
X163761955Y-84862359D01*
X163750000Y-84874314D01*
X163750000Y-83911127D01*
X163553671Y-83963734D01*
X163347517Y-84059865D01*
X163161179Y-84190342D01*
X163000342Y-84351179D01*
X162869865Y-84537517D01*
X162773734Y-84743673D01*
X162773730Y-84743682D01*
X162721127Y-84939999D01*
X157000500Y-84939999D01*
X157000499Y-83442128D01*
X156994091Y-83382517D01*
X156960017Y-83291161D01*
X156943797Y-83247671D01*
X156943793Y-83247664D01*
X156857547Y-83132455D01*
X156857544Y-83132452D01*
X156742335Y-83046206D01*
X156742328Y-83046202D01*
X156607482Y-82995908D01*
X156607483Y-82995908D01*
X156547883Y-82989501D01*
X156547881Y-82989500D01*
X156547873Y-82989500D01*
X156547864Y-82989500D01*
X154252129Y-82989500D01*
X154252123Y-82989501D01*
X154192516Y-82995908D01*
X154057671Y-83046202D01*
X154057664Y-83046206D01*
X153942455Y-83132452D01*
X153942452Y-83132455D01*
X153856206Y-83247664D01*
X153856202Y-83247671D01*
X153805908Y-83382517D01*
X153799501Y-83442116D01*
X153799501Y-83442123D01*
X153799500Y-83442135D01*
X153799500Y-85737870D01*
X151520417Y-85737870D01*
X151535224Y-85725224D01*
X151698836Y-85533659D01*
X151830466Y-85318859D01*
X151926873Y-85086111D01*
X151985683Y-84841148D01*
X152005449Y-84590000D01*
X151985683Y-84338852D01*
X151926873Y-84093889D01*
X151865700Y-83946204D01*
X151830466Y-83861140D01*
X151698839Y-83646346D01*
X151698838Y-83646343D01*
X151661875Y-83603066D01*
X151535224Y-83454776D01*
X151408571Y-83346604D01*
X151343656Y-83291161D01*
X151343653Y-83291160D01*
X151128859Y-83159533D01*
X150896110Y-83063126D01*
X150651151Y-83004317D01*
X150400000Y-82984551D01*
X150148848Y-83004317D01*
X149903889Y-83063126D01*
X149671140Y-83159533D01*
X149456346Y-83291160D01*
X149456343Y-83291161D01*
X149264776Y-83454776D01*
X149101161Y-83646343D01*
X149101160Y-83646346D01*
X148969533Y-83861140D01*
X148873126Y-84093889D01*
X148814317Y-84338848D01*
X148794551Y-84590000D01*
X146000000Y-84590000D01*
X146000000Y-81124000D01*
X146019685Y-81056961D01*
X146072489Y-81011206D01*
X146124000Y-81000000D01*
X203876000Y-81000000D01*
X203943039Y-81019685D01*
G37*
%TD.AperFunction*%
%TD*%
M02*
