M48
; DRILL file {KiCad 7.0.8-1.fc38} date Thu 28 Dec 2023 01:03:51 PM CAT
; FORMAT={-:-/ absolute / inch / decimal}
; #@! TF.CreationDate,2023-12-28T13:03:51+02:00
; #@! TF.GenerationSoftware,Kicad,Pcbnew,7.0.8-1.fc38
; #@! TF.FileFunction,Plated,1,2,PTH
FMAT,2
INCH
; #@! TA.AperFunction,Plated,PTH,ViaDrill
T1C0.0157
; #@! TA.AperFunction,Plated,PTH,ComponentDrill
T2C0.0315
; #@! TA.AperFunction,Plated,PTH,ComponentDrill
T3C0.0394
; #@! TA.AperFunction,Plated,PTH,ComponentDrill
T4C0.0433
; #@! TA.AperFunction,Plated,PTH,ComponentDrill
T5C0.0520
%
G90
G05
T1
X6.2441Y-3.9213
X6.5571Y-4.0768
T2
X6.3575Y-3.8809
X6.3575Y-4.1809
X6.4567Y-3.3539
X6.4567Y-3.6539
X6.4575Y-3.8809
X6.4575Y-4.1809
X6.5575Y-3.8809
X6.5575Y-4.1809
X6.6575Y-3.8809
X6.6575Y-4.1809
X7.0079Y-3.8898
X7.0079Y-4.0866
X7.0197Y-4.3012
X7.315Y-4.3012
X7.4957Y-3.937
X7.5012Y-4.3012
X7.7957Y-3.937
X7.7965Y-4.3012
T3
X6.0394Y-3.9102
X6.0394Y-4.0102
X6.0394Y-4.1102
X7.2697Y-3.937
X7.2697Y-4.037
T4
X5.9213Y-3.3303
X5.9213Y-3.6303
X6.1181Y-3.3303
X6.1181Y-3.6303
X6.7323Y-3.422
X6.7323Y-3.522
X6.7323Y-3.622
X6.9961Y-3.3657
X6.9961Y-3.6657
T5
X7.5197Y-3.4384
X7.5197Y-3.6352
T0
M30
