%TF.GenerationSoftware,KiCad,Pcbnew,7.0.8-1.fc38*%
%TF.CreationDate,2023-12-28T13:03:44+02:00*%
%TF.ProjectId,MotorSpeedControl,4d6f746f-7253-4706-9565-64436f6e7472,rev?*%
%TF.SameCoordinates,Original*%
%TF.FileFunction,Other,User*%
%FSLAX46Y46*%
G04 Gerber Fmt 4.6, Leading zero omitted, Abs format (unit mm)*
G04 Created by KiCad (PCBNEW 7.0.8-1.fc38) date 2023-12-28 13:03:44*
%MOMM*%
%LPD*%
G01*
G04 APERTURE LIST*
%ADD10C,0.050000*%
G04 APERTURE END LIST*
D10*
X145000000Y-115000000D02*
X145000000Y-80000000D01*
X205000000Y-115000000D02*
X145000000Y-115000000D01*
X205000000Y-80000000D02*
X205000000Y-115000000D01*
X145000000Y-80000000D02*
X205000000Y-80000000D01*
%TO.C,Q1*%
X167600000Y-94710000D02*
X172510000Y-94710000D01*
X172510000Y-94710000D02*
X172510000Y-84210000D01*
X167600000Y-84210000D02*
X167600000Y-94710000D01*
X172510000Y-84210000D02*
X167600000Y-84210000D01*
%TO.C,J2*%
X186450000Y-104340000D02*
X182900000Y-104340000D01*
X186450000Y-98240000D02*
X186450000Y-104340000D01*
X182900000Y-104340000D02*
X182900000Y-98240000D01*
X182900000Y-98240000D02*
X186450000Y-98240000D01*
%TO.C,R2*%
X162500000Y-93860000D02*
X165500000Y-93860000D01*
X165500000Y-93860000D02*
X165500000Y-84140000D01*
X162500000Y-84140000D02*
X162500000Y-93860000D01*
X165500000Y-84140000D02*
X162500000Y-84140000D01*
%TO.C,D3*%
X179300000Y-84140000D02*
X176100000Y-84140000D01*
X176100000Y-84140000D02*
X176100000Y-94460000D01*
X179300000Y-94460000D02*
X179300000Y-84140000D01*
X176100000Y-94460000D02*
X179300000Y-94460000D01*
%TO.C,D1*%
X157000000Y-83240000D02*
X153800000Y-83240000D01*
X153800000Y-83240000D02*
X153800000Y-93560000D01*
X157000000Y-93560000D02*
X157000000Y-83240000D01*
X153800000Y-93560000D02*
X157000000Y-93560000D01*
%TO.C,C2*%
X177250000Y-107450000D02*
X177250000Y-111050000D01*
X177250000Y-111050000D02*
X186850000Y-111050000D01*
X186850000Y-107450000D02*
X177250000Y-107450000D01*
X186850000Y-111050000D02*
X186850000Y-107450000D01*
%TO.C,C3*%
X181720000Y-101300000D02*
G75*
G03*
X181720000Y-101300000I-3720000J0D01*
G01*
%TO.C,D2*%
X148800000Y-93560000D02*
X152000000Y-93560000D01*
X152000000Y-93560000D02*
X152000000Y-83240000D01*
X148800000Y-83240000D02*
X148800000Y-93560000D01*
X152000000Y-83240000D02*
X148800000Y-83240000D01*
%TO.C,R1*%
X189340000Y-98500000D02*
X189340000Y-101500000D01*
X189340000Y-101500000D02*
X199060000Y-101500000D01*
X199060000Y-98500000D02*
X189340000Y-98500000D01*
X199060000Y-101500000D02*
X199060000Y-98500000D01*
%TO.C,RV1*%
X156200000Y-108370000D02*
X156200000Y-95320000D01*
X156200000Y-95320000D02*
X148100000Y-95320000D01*
X148100000Y-108370000D02*
X156200000Y-108370000D01*
X148100000Y-108370000D02*
X148100000Y-104320000D01*
X148100000Y-104320000D02*
X146600000Y-104320000D01*
X148100000Y-99320000D02*
X148100000Y-95320000D01*
X146600000Y-104320000D02*
X146600000Y-99320000D01*
X146600000Y-99320000D02*
X148100000Y-99320000D01*
%TO.C,C1*%
X199080000Y-111050000D02*
X199080000Y-107450000D01*
X199080000Y-107450000D02*
X189480000Y-107450000D01*
X189480000Y-111050000D02*
X199080000Y-111050000D01*
X189480000Y-107450000D02*
X189480000Y-111050000D01*
%TO.C,U1*%
X170650000Y-97125000D02*
X159950000Y-97125000D01*
X159950000Y-97125000D02*
X159950000Y-107675000D01*
X170650000Y-107675000D02*
X170650000Y-97125000D01*
X159950000Y-107675000D02*
X170650000Y-107675000D01*
%TO.C,J1*%
X197470000Y-84505000D02*
X184530000Y-84505000D01*
X197470000Y-84505000D02*
X197470000Y-95695000D01*
X184530000Y-95695000D02*
X184530000Y-84505000D01*
X184530000Y-95695000D02*
X197470000Y-95695000D01*
%TD*%
M02*
